<svg width="31" height="29" viewBox="0 0 31 29" fill="none" xmlns="http://www.w3.org/2000/svg">
<path d="M29.1186 16.1521C29.1186 21.2656 29.1186 23.8225 27.53 25.411C25.9416 26.9996 23.3847 26.9996 18.2712 26.9996H12.8475C7.73391 26.9996 5.17715 26.9996 3.58857 25.411C2 23.8225 2 21.2656 2 16.1521C2 11.0386 2 8.48184 3.58857 6.89326C5.17715 5.30469 7.73391 5.30469 12.8475 5.30469H18.2712C23.3847 5.30469 25.9416 5.30469 27.53 6.89326C28.43 7.79311 28.8201 9.0036 28.9892 10.8135" stroke="white" stroke-width="2.0339" stroke-linecap="round"/>
<path d="M4.69531 6.0678C4.84776 4.8054 5.16602 3.933 5.83048 3.27086C7.10581 2 9.1584 2 13.2636 2H17.6178C21.723 2 23.7756 2 25.0509 3.27086C25.7154 3.933 26.0336 4.8054 26.186 6.0678" stroke="white" stroke-width="2.0339"/>
<path d="M23.0171 13.4408C24.1403 13.4408 25.051 12.5302 25.051 11.4069C25.051 10.2837 24.1403 9.37305 23.0171 9.37305C21.8938 9.37305 20.9832 10.2837 20.9832 11.4069C20.9832 12.5302 21.8938 13.4408 23.0171 13.4408Z" stroke="white" stroke-width="2.0339"/>
<path d="M2 16.8302L4.37504 14.7521C5.61066 13.671 7.47292 13.7329 8.63388 14.8939L14.4504 20.7104C15.3822 21.6424 16.8491 21.7694 17.9273 21.0116L18.3317 20.7275C19.8831 19.6371 21.9822 19.7634 23.3919 21.0321L27.7627 24.9657" stroke="white" stroke-width="2.0339" stroke-linecap="round"/>
</svg>
