<svg width="20" height="20" viewBox="0 0 20 20" fill="none" xmlns="http://www.w3.org/2000/svg">
<path d="M10.0031 11C12.4886 11 14.5051 8.98438 14.5051 6.5C14.5051 4.01562 12.4886 2 10.0031 2C7.51764 2 5.50111 4.01562 5.50111 6.5C5.50111 8.98438 7.51764 11 10.0031 11ZM10.0031 3.5C11.657 3.5 13.0045 4.84687 13.0045 6.5C13.0045 8.15312 11.657 9.5 10.0031 9.5C8.34926 9.5 7.00178 8.15312 7.00178 6.5C7.00178 4.84687 8.34926 3.5 10.0031 3.5ZM12.8044 11.5C12.4605 11.5 12.1228 11.5813 11.7977 11.6938C11.2349 11.8906 10.6315 12 10.0031 12C9.37471 12 8.77132 11.8906 8.20857 11.6938C7.88343 11.5813 7.54577 11.5 7.20187 11.5C4.88209 11.5 3 13.3813 3 15.7V17.25C3 17.6656 3.33452 18 3.75033 18C4.16614 18 4.50067 17.6656 4.50067 17.25V15.7C4.50067 14.2781 5.60741 13.125 7.00178 13.0188V14.5813C6.27959 14.7969 5.75123 15.4594 5.75123 16.25C5.75123 17.2156 6.53595 18 7.50201 18C8.46806 18 9.25279 17.2156 9.25279 16.25C9.25279 15.4594 8.72442 14.7969 8.00223 14.5813V13.1844C8.65252 13.3812 9.32469 13.5 10.0031 13.5C10.6847 13.5 11.3537 13.3812 12.004 13.1844V14.3188C11.1224 14.5531 10.5033 15.3969 10.5033 16.3375V17.25C10.5033 17.3813 10.5565 17.5094 10.6503 17.6031L10.9723 17.925C11.0692 18.0219 11.2287 18.0219 11.3256 17.925L11.6789 17.5719C11.7758 17.475 11.7758 17.3156 11.6789 17.2188L11.5007 17.0406V16.25C11.5007 15.6438 12.0447 15.1625 12.6699 15.2625C13.1608 15.3438 13.5016 15.8063 13.5016 16.3031V17.0406L13.3233 17.2188C13.2264 17.3156 13.2264 17.475 13.3233 17.5719L13.6766 17.925C13.7735 18.0219 13.933 18.0219 14.0299 17.925L14.3519 17.6031C14.4457 17.5094 14.4989 17.3813 14.4989 17.25V16.25C14.4989 15.3219 13.858 14.5469 12.9982 14.325V13.0219C14.3926 13.125 15.4993 14.2812 15.4993 15.7031V17.25C15.4993 17.6656 15.8338 18 16.2497 18C16.6655 18 17 17.6656 17 17.25V15.7C17.0062 13.3813 15.1242 11.5 12.8044 11.5ZM8.25234 16.25C8.25234 16.6656 7.91782 17 7.50201 17C7.08619 17 6.75167 16.6656 6.75167 16.25C6.75167 15.8344 7.08619 15.5 7.50201 15.5C7.91782 15.5 8.25234 15.8344 8.25234 16.25Z" fill="#00BEB4" fill-opacity="0.69"/>
</svg>
