<svg width="20" height="20" viewBox="0 0 20 20" fill="none" xmlns="http://www.w3.org/2000/svg">
<path d="M7 9.625V8.375C7 8.16791 7.16791 8 7.375 8H8.625C8.83209 8 9 8.16791 9 8.375V9.625C9 9.83209 8.83209 10 8.625 10H7.375C7.16791 10 7 9.83209 7 9.625ZM11.375 10H12.625C12.8321 10 13 9.83209 13 9.625V8.375C13 8.16791 12.8321 8 12.625 8H11.375C11.1679 8 11 8.16791 11 8.375V9.625C11 9.83209 11.1679 10 11.375 10ZM9 12.625V11.375C9 11.1679 8.83209 11 8.625 11H7.375C7.16791 11 7 11.1679 7 11.375V12.625C7 12.8321 7.16791 13 7.375 13H8.625C8.83209 13 9 12.8321 9 12.625ZM11.375 13H12.625C12.8321 13 13 12.8321 13 12.625V11.375C13 11.1679 12.8321 11 12.625 11H11.375C11.1679 11 11 11.1679 11 11.375V12.625C11 12.8321 11.1679 13 11.375 13ZM17 16.875V18H3V16.875C3 16.6679 3.16791 16.5 3.375 16.5H3.98438V4.65734C3.98438 4.29431 4.32016 4 4.73438 4H7.5V2.75C7.5 2.33578 7.83578 2 8.25 2H11.75C12.1642 2 12.5 2.33578 12.5 2.75V4H15.2656C15.6798 4 16.0156 4.29431 16.0156 4.65734V16.5H16.625C16.8321 16.5 17 16.6679 17 16.875ZM5.48438 16.4688H9V14.375C9 14.1679 9.16791 14 9.375 14H10.625C10.8321 14 11 14.1679 11 14.375V16.4688H14.5156V5.5H12.5V6.25C12.5 6.66422 12.1642 7 11.75 7H8.25C7.83578 7 7.5 6.66422 7.5 6.25V5.5H5.48438V16.4688ZM11.3125 4H10.5V3.1875C10.5 3.13777 10.4802 3.09008 10.4451 3.05492C10.4099 3.01975 10.3622 3 10.3125 3H9.6875C9.63777 3 9.59008 3.01975 9.55492 3.05492C9.51975 3.09008 9.5 3.13777 9.5 3.1875V4H8.6875C8.63777 4 8.59008 4.01975 8.55492 4.05492C8.51975 4.09008 8.5 4.13777 8.5 4.1875V4.8125C8.5 4.86223 8.51975 4.90992 8.55492 4.94508C8.59008 4.98025 8.63777 5 8.6875 5H9.5V5.8125C9.5 5.86223 9.51975 5.90992 9.55492 5.94508C9.59008 5.98025 9.63777 6 9.6875 6H10.3125C10.3622 6 10.4099 5.98025 10.4451 5.94508C10.4802 5.90992 10.5 5.86223 10.5 5.8125V5H11.3125C11.3622 5 11.4099 4.98025 11.4451 4.94508C11.4802 4.90992 11.5 4.86223 11.5 4.8125V4.1875C11.5 4.13777 11.4802 4.09008 11.4451 4.05492C11.4099 4.01975 11.3622 4 11.3125 4Z" fill="#00BEB4" fill-opacity="0.69"/>
</svg>
