<svg width="43" height="41" viewBox="0 0 43 41" fill="none" xmlns="http://www.w3.org/2000/svg">
<rect width="43" height="41"/>
<g id="Group 1000001535">
<path id="Vector" d="M33.1228 20.2307L15.7883 37.5651C12.4745 40.879 7.02255 40.8 3.61113 37.3887C0.199756 33.9773 0.120739 28.5253 3.43466 25.2114L20.7691 7.87695" stroke="white" stroke-width="2" stroke-linecap="round"/>
<path id="Vector_2" d="M2.94336 25.7041L28.3188 25.0361" stroke="white" stroke-width="2" stroke-linecap="round"/>
<path id="Vector_3" d="M22.9964 19.3754C23.7545 18.6172 23.7545 17.3882 22.9964 16.6301C22.2384 15.872 21.0093 15.872 20.2511 16.6301C19.4931 17.3882 19.4931 18.6172 20.2511 19.3754C21.0093 20.1334 22.2384 20.1334 22.9964 19.3754Z" fill="white"/>
<path id="Vector_4" d="M27.6468 3.31385C28.4049 2.55571 28.4049 1.32664 27.6468 0.568602C26.8887 -0.189534 25.6597 -0.189534 24.9015 0.568602C24.1435 1.32664 24.1435 2.55571 24.9015 3.31385C25.6597 4.07189 26.8887 4.07189 27.6468 3.31385Z" fill="white"/>
<path id="Vector_5" d="M42.0901 16.6478C42.8483 15.8897 42.8483 14.6606 42.0901 13.9026C41.3321 13.1445 40.103 13.1445 39.3449 13.9026C38.5869 14.6606 38.5869 15.8897 39.3449 16.6478C40.103 17.4059 41.3321 17.4059 42.0901 16.6478Z" fill="white"/>
<path id="Vector_6" d="M35.4232 13.3138C36.1813 12.5557 36.1813 11.3266 35.4232 10.5686C34.6651 9.81047 33.436 9.81047 32.6779 10.5686C31.9199 11.3266 31.9199 12.5557 32.6779 13.3138C33.436 14.0719 34.6651 14.0719 35.4232 13.3138Z" fill="white"/>
<path id="Vector_7" d="M37.6468 5.5365C38.4049 4.77837 38.4049 3.5493 37.6468 2.79126C36.8887 2.03312 35.6597 2.03312 34.9015 2.79126C34.1435 3.5493 34.1435 4.77837 34.9015 5.5365C35.6597 6.29454 36.8887 6.29454 37.6468 5.5365Z" fill="white"/>
<path id="Vector_8" d="M17.5043 22.1205C18.2624 21.3624 18.2624 20.1333 17.5043 19.3752C16.7462 18.6171 15.5171 18.6171 14.759 19.3752C14.0009 20.1333 14.0009 21.3624 14.759 22.1205C15.5171 22.8786 16.7462 22.8786 17.5043 22.1205Z" fill="white"/>
<path id="Vector_9" d="M17.3389 4.44434L36.5557 23.6613" stroke="white" stroke-width="2" stroke-linecap="round"/>
</g>
</svg>
