<svg width="22" height="25" viewBox="0 0 22 25" fill="none" xmlns="http://www.w3.org/2000/svg">
<path d="M17.25 9.34373C19.5972 9.34373 21.5 7.44094 21.5 5.09374C21.5 2.74654 19.5972 0.84375 17.25 0.84375C14.9028 0.84375 13 2.74654 13 5.09374C13 5.7736 13.1596 6.41618 13.4434 6.98604C13.5189 7.13747 13.544 7.31056 13.5003 7.474L13.2472 8.42003C13.1373 8.83075 13.513 9.20645 13.9237 9.09655L14.8697 8.84342C15.0332 8.79973 15.2063 8.8248 15.3577 8.90028C15.9276 9.1841 16.5702 9.34373 17.25 9.34373Z" stroke="#13172C" stroke-width="0.679999"/>
<path d="M15.5498 5.09355H18.9498M17.2498 6.79355V3.39355" stroke="#13172C" stroke-width="0.679999" stroke-linecap="round"/>
<path d="M8.54698 5.48896L9.35824 6.94262C10.0904 8.25447 9.79646 9.97536 8.64338 11.1285C8.64338 11.1285 7.24484 12.5272 9.78062 15.0631C12.3156 17.5981 13.7152 16.2004 13.7152 16.2004C14.8684 15.0472 16.5892 14.7534 17.9011 15.4855L19.3547 16.2967C21.3357 17.4022 21.5696 20.1802 19.8285 21.9215C18.7822 22.9677 17.5005 23.7818 16.0836 23.8355C13.6985 23.926 9.64784 23.3223 5.58462 19.2591C1.52141 15.1959 0.917765 11.1452 1.00819 8.7601C1.0619 7.34324 1.876 6.06153 2.92226 5.01529C4.66345 3.2741 7.44145 3.50805 8.54698 5.48896Z" stroke="#13172C" stroke-linecap="round"/>
</svg>
