<svg width="158" height="29" viewBox="0 0 158 29" fill="none" xmlns="http://www.w3.org/2000/svg">
<path d="M63.6565 27.9855C62.6303 27.9855 61.5594 27.9145 60.4417 27.7743C59.3258 27.6323 58.2679 27.423 57.2661 27.1389C56.2662 26.8566 55.3671 26.5221 54.5728 26.137C53.8794 25.8025 53.3915 25.3614 53.1093 24.8081C52.8271 24.2568 52.7243 23.6717 52.8009 23.0568C52.8775 22.44 53.0962 21.8961 53.4551 21.4214C53.8139 20.9466 54.2887 20.6252 54.8793 20.4588C55.4699 20.2925 56.1372 20.3766 56.8811 20.7093C57.8567 21.1709 58.9595 21.5317 60.1912 21.7877C61.4229 22.0457 62.578 22.1727 63.6565 22.1727C65.3498 22.1727 66.5367 21.9485 67.217 21.4999C67.8974 21.0513 68.2375 20.4925 68.2375 19.8252C68.2375 19.2346 68.0002 18.7598 67.5254 18.401C67.0488 18.0421 66.2096 17.7337 65.0041 17.4777L60.5015 16.5151C58.038 16.0011 56.2026 15.1039 54.9971 13.8199C53.7897 12.5377 53.1878 10.8817 53.1878 8.85377C53.1878 7.51926 53.4644 6.3081 54.0158 5.21657C54.5672 4.1269 55.3503 3.19611 56.3634 2.42605C57.3764 1.65599 58.5838 1.05976 59.9819 0.635483C61.3799 0.211205 62.9387 0 64.6583 0C65.9928 0 67.346 0.147656 68.7198 0.442969C70.0935 0.738282 71.2804 1.18125 72.2803 1.77001C72.871 2.0784 73.2952 2.50268 73.5513 3.04097C73.8092 3.57926 73.912 4.13812 73.8597 4.71566C73.8074 5.2932 73.6092 5.79972 73.2635 6.23708C72.9177 6.67444 72.4542 6.96228 71.8766 7.10246C71.2991 7.24451 70.6131 7.14731 69.8169 6.81275C69.0711 6.48006 68.2319 6.2296 67.2955 6.06139C66.3591 5.89504 65.4545 5.81093 64.5816 5.81093C63.6322 5.81093 62.8229 5.92121 62.1575 6.13802C61.4902 6.3567 60.9837 6.6707 60.6379 7.0819C60.2903 7.49309 60.1183 7.96783 60.1183 8.50613C60.1183 9.04442 60.3426 9.50047 60.7912 9.87241C61.2398 10.2444 62.0677 10.5584 63.2733 10.8163L67.7385 11.7789C70.2281 12.319 72.0878 13.2031 73.3195 14.4348C74.5513 15.6665 75.168 17.2702 75.168 19.2458C75.168 20.5803 74.8989 21.7859 74.3587 22.8643C73.8204 23.9428 73.0504 24.8605 72.0486 25.6174C71.0468 26.3744 69.8412 26.9576 68.4301 27.3688C67.0189 27.7799 65.4265 27.9855 63.6565 27.9855Z" fill="#00BEB4"/>
<path d="M85.1358 27.985C83.6724 27.985 82.3828 27.7158 81.267 27.1757C80.1513 26.6374 79.2784 25.8992 78.6505 24.9628C78.0206 24.0265 77.7085 22.9555 77.7085 21.7482C77.7085 20.3614 78.0673 19.2718 78.785 18.4756C79.5046 17.6794 80.6577 17.1094 82.2501 16.7617C83.8406 16.4141 85.9582 16.2422 88.6028 16.2422H90.7203V19.4755H88.6028C87.601 19.4755 86.7749 19.5465 86.1189 19.6867C85.4648 19.8287 84.9844 20.0455 84.6761 20.3408C84.3677 20.6361 84.2144 21.0137 84.2144 21.4753C84.2144 22.0659 84.4256 22.5537 84.8499 22.9387C85.2741 23.3237 85.8815 23.5162 86.6777 23.5162C87.3188 23.5162 87.8907 23.3761 88.3897 23.092C88.8906 22.8098 89.2943 22.4191 89.6027 21.9183C89.9111 21.4174 90.0643 20.8343 90.0643 20.167V15.702C90.0643 14.7788 89.827 14.1227 89.3522 13.7396C88.8775 13.3546 88.0627 13.1621 86.9076 13.1621C86.2909 13.1621 85.5993 13.2331 84.8293 13.3733C84.0593 13.5153 83.1996 13.7658 82.2501 14.1246C81.5567 14.3825 80.9661 14.4199 80.4802 14.2405C79.9924 14.0611 79.613 13.7527 79.3439 13.3172C79.0747 12.8799 78.9458 12.407 78.9588 11.893C78.9719 11.3791 79.1383 10.8913 79.4597 10.4296C79.7812 9.968 80.2746 9.60915 80.9418 9.35123C82.1735 8.8896 83.308 8.58122 84.3471 8.42609C85.3863 8.27283 86.3413 8.19434 87.2141 8.19434C89.3186 8.19434 91.0568 8.49711 92.4305 9.09892C93.8023 9.7026 94.8302 10.6259 95.5105 11.8706C96.1908 13.1154 96.531 14.7133 96.531 16.6627V24.4377C96.531 25.5665 96.26 26.4262 95.7217 27.0168C95.1835 27.6074 94.4004 27.9027 93.3724 27.9027C92.3445 27.9027 91.5184 27.6074 90.967 27.0168C90.4157 26.4262 90.1391 25.5665 90.1391 24.4377V23.4359L90.3708 23.976C90.2419 24.7984 89.9466 25.503 89.4849 26.0936C89.0233 26.6842 88.4196 27.1458 87.6758 27.4804C86.9319 27.813 86.0853 27.9812 85.1358 27.9812" fill="#00BEB4"/>
<path d="M108.004 27.9851C105.541 27.9851 103.724 27.3253 102.558 26.002C101.39 24.6806 100.806 22.6863 100.806 20.0154V3.54142C100.806 2.41251 101.102 1.55274 101.692 0.96211C102.283 0.371485 103.117 0.0761719 104.195 0.0761719C105.273 0.0761719 106.152 0.371485 106.756 0.96211C107.359 1.55274 107.66 2.41251 107.66 3.54142V19.7874C107.66 20.7368 107.847 21.4303 108.219 21.8658C108.591 22.3031 109.071 22.5199 109.662 22.5199C109.841 22.5199 110.028 22.5012 110.221 22.462C110.413 22.4227 110.625 22.391 110.856 22.3667C111.292 22.3667 111.619 22.5349 111.838 22.8676C112.056 23.2021 112.165 23.8825 112.165 24.9086C112.165 25.8076 111.985 26.4805 111.626 26.9291C111.266 27.3795 110.714 27.6673 109.97 27.7944C109.765 27.8187 109.47 27.858 109.084 27.9103C108.699 27.9627 108.339 27.987 108.006 27.987" fill="#00BEB4"/>
<path d="M121.668 27.9847C120.025 27.9847 118.678 27.6819 117.626 27.0801C116.573 26.4764 115.785 25.5718 115.258 24.3663C114.731 23.1608 114.469 21.632 114.469 19.7855V11.7021C114.469 10.5733 114.764 9.71914 115.355 9.14162C115.945 8.56411 116.792 8.27628 117.897 8.27628C119.001 8.27628 119.846 8.56411 120.437 9.14162C121.027 9.71914 121.323 10.5714 121.323 11.7021V19.978C121.323 20.9012 121.515 21.5946 121.9 22.0563C122.285 22.5179 122.887 22.7497 123.709 22.7497C124.633 22.7497 125.389 22.417 125.98 21.7479C126.571 21.0807 126.866 20.1948 126.866 19.0921V11.7003C126.866 10.5714 127.161 9.71727 127.752 9.13975C128.342 8.56224 129.189 8.27441 130.292 8.27441C131.394 8.27441 132.241 8.56224 132.832 9.13975C133.422 9.71727 133.718 10.5695 133.718 11.7003V24.4411C133.718 26.7512 132.613 27.9062 130.408 27.9062C129.329 27.9062 128.496 27.6109 127.905 27.0203C127.315 26.4297 127.019 25.57 127.019 24.4411V22.2077L127.636 24.0935C127.072 25.3513 126.283 26.3138 125.268 26.981C124.253 27.6483 123.055 27.9809 121.668 27.9809" fill="#00BEB4"/>
<path d="M145.498 27.9851C143.881 27.9851 142.449 27.587 141.204 26.7908C139.96 25.9945 138.984 24.8525 138.279 23.3648C137.573 21.877 137.221 20.1182 137.221 18.0902C137.221 16.0623 137.575 14.24 138.279 12.7784C138.986 11.3149 139.96 10.186 141.204 9.39161C142.449 8.59538 143.879 8.19727 145.498 8.19727C146.909 8.19727 148.18 8.53183 149.309 9.19909C150.438 9.86635 151.195 10.7261 151.58 11.7784H151.155V3.54142C151.155 2.41251 151.449 1.55274 152.041 0.96211C152.632 0.371485 153.479 0.0761719 154.581 0.0761719C155.684 0.0761719 156.499 0.371485 157.103 0.96211C157.705 1.55274 158.007 2.41251 158.007 3.54142V24.4451C158.007 25.574 157.72 26.4338 157.142 27.0244C156.564 27.615 155.723 27.9103 154.621 27.9103C153.518 27.9103 152.709 27.615 152.118 27.0244C151.527 26.4338 151.232 25.574 151.232 24.4451V22.2508L151.656 24.1367C151.296 25.2918 150.546 26.2226 149.404 26.9272C148.262 27.6337 146.959 27.9851 145.496 27.9851M147.69 22.9423C148.384 22.9423 148.998 22.7685 149.539 22.4227C150.077 22.0751 150.494 21.5499 150.789 20.8434C151.082 20.1369 151.232 19.221 151.232 18.0921C151.232 16.3726 150.897 15.1352 150.23 14.3764C149.563 13.6194 148.716 13.2419 147.69 13.2419C146.997 13.2419 146.382 13.4101 145.842 13.7428C145.303 14.0774 144.879 14.597 144.571 15.3016C144.262 16.0081 144.109 16.937 144.109 18.0921C144.109 19.7855 144.444 21.0172 145.111 21.7873C145.778 22.5573 146.638 22.9423 147.69 22.9423Z" fill="#00BEB4"/>
<path d="M42.3997 16.7841V19.2736H45.3097C46.9731 19.2736 48.3337 17.913 48.3337 16.2496C48.3337 15.3675 47.9487 14.575 47.3412 14.0199C46.846 13.6162 46.2199 13.3994 45.5265 13.3994C43.8556 13.3994 42.3997 14.6423 42.3997 16.7841Z" fill="#00BEB4"/>
<path d="M13.6631 9.98247C13.6631 7.51904 15.6667 5.76585 18.2554 5.76585C20.844 5.76585 22.3468 7.18447 22.9729 9.64791C24.6009 7.64427 27.1054 5.64062 30.2361 5.64062C34.9948 5.64062 37.9591 8.64609 37.9591 13.53V23.7145C37.9591 26.0938 35.9143 28.0564 33.3668 28.0564C30.8193 28.0564 28.7745 26.0938 28.7745 23.7145V16.5354C28.7745 14.4477 27.5222 13.2384 25.8943 13.2384C24.2663 13.2384 22.8477 14.4495 22.8477 16.5354V23.7145C22.8477 26.0938 20.8029 28.0564 18.2554 28.0564C15.7078 28.0564 13.6631 26.0938 13.6631 23.7145V9.98247Z" fill="#13172C"/>
<path d="M4.77322 8.97559C2.14356 8.97559 0.0559082 11.1062 0.0559082 13.7714V23.0397C0.0559082 25.8114 2.16786 28.0579 4.77322 28.0579C7.37858 28.0579 9.49052 25.8114 9.49052 23.0397V13.7714C9.49052 11.1062 7.40287 8.97559 4.77322 8.97559Z" fill="#13172C"/>
<path d="M4.74721 0.0078125C2.10073 0.0078125 0 2.00949 0 4.51393V13.2252C0 15.8306 2.12503 17.9426 4.74721 17.9426C7.36939 17.9426 9.49442 15.8306 9.49442 13.2252V4.51393C9.49442 2.00949 7.39369 0.0078125 4.74721 0.0078125Z" fill="#00BEB4"/>
<path d="M0.00732422 13.4977C0.147498 15.9778 2.21646 17.9459 4.74706 17.9459C7.27766 17.9459 9.34662 15.9778 9.4868 13.4977C9.34662 10.9634 7.30196 8.97852 4.74706 8.97852C2.19216 8.97852 0.147498 10.9634 0.00732422 13.4977Z" fill="#00BEB4"/>
</svg>
