<svg width="107" height="19" viewBox="0 0 107 19" fill="none" xmlns="http://www.w3.org/2000/svg">
<path d="M43.1086 18.9515C42.4137 18.9515 41.6885 18.9034 40.9316 18.8085C40.1759 18.7123 39.4596 18.5705 38.7811 18.3781C38.104 18.187 37.4952 17.9604 36.9572 17.6997C36.4877 17.4731 36.1573 17.1744 35.9662 16.7998C35.7751 16.4264 35.7055 16.0302 35.7573 15.6138C35.8092 15.1961 35.9573 14.8278 36.2003 14.5063C36.4434 14.1848 36.7649 13.9671 37.1648 13.8545C37.5648 13.7418 38.0166 13.7988 38.5204 14.0241C39.1811 14.3367 39.9279 14.581 40.762 14.7544C41.5961 14.929 42.3783 15.0151 43.1086 15.0151C44.2553 15.0151 45.0591 14.8632 45.5198 14.5595C45.9805 14.2557 46.2109 13.8772 46.2109 13.4254C46.2109 13.0254 46.0501 12.7039 45.7286 12.4609C45.4059 12.2179 44.8376 12.0091 44.0212 11.8357L40.9721 11.1838C39.3039 10.8357 38.0609 10.2282 37.2446 9.35865C36.4269 8.49038 36.0193 7.36896 36.0193 5.99566C36.0193 5.09194 36.2067 4.27176 36.5801 3.53259C36.9534 2.79468 37.4838 2.16435 38.1698 1.64288C38.8558 1.1214 39.6735 0.717643 40.6202 0.430327C41.567 0.14301 42.6226 -1.52588e-05 43.787 -1.52588e-05C44.6907 -1.52588e-05 45.6071 0.0999759 46.5374 0.299958C47.4677 0.499941 48.2714 0.799914 48.9486 1.19861C49.3486 1.40746 49.6359 1.69477 49.8093 2.0593C49.9839 2.42382 50.0536 2.80227 50.0181 3.19337C49.9827 3.58448 49.8485 3.92749 49.6144 4.22366C49.3802 4.51984 49.0663 4.71476 48.6752 4.80969C48.2841 4.90588 47.8196 4.84007 47.2804 4.6135C46.7754 4.38821 46.2071 4.2186 45.5729 4.10469C44.9388 3.99204 44.3262 3.93508 43.7351 3.93508C43.0921 3.93508 42.5441 4.00976 42.0935 4.15658C41.6416 4.30467 41.2986 4.51731 41.0645 4.79576C40.829 5.07422 40.7126 5.39571 40.7126 5.76024C40.7126 6.12476 40.8645 6.4336 41.1683 6.68547C41.472 6.93735 42.0327 7.14999 42.8491 7.32466L45.8729 7.9765C47.5588 8.34229 48.8182 8.94097 49.6523 9.77507C50.4864 10.6092 50.9041 11.6952 50.9041 13.033C50.9041 13.9367 50.7219 14.7531 50.3561 15.4834C49.9915 16.2137 49.4701 16.8352 48.7916 17.3478C48.1132 17.8604 47.2968 18.2553 46.3412 18.5338C45.3856 18.8123 44.3072 18.9515 43.1086 18.9515Z" fill="white"/>
<path d="M57.6557 18.9511C56.6647 18.9511 55.7914 18.7689 55.0358 18.4031C54.2802 18.0386 53.6891 17.5386 53.2639 16.9046C52.8373 16.2705 52.626 15.5452 52.626 14.7276C52.626 13.7885 52.869 13.0506 53.355 12.5115C53.8423 11.9723 54.6232 11.5863 55.7015 11.3509C56.7786 11.1155 58.2126 10.999 60.0035 10.999H61.4374V13.1886H60.0035C59.3251 13.1886 58.7657 13.2367 58.3214 13.3316C57.8784 13.4278 57.5532 13.5746 57.3443 13.7746C57.1355 13.9746 57.0317 14.2302 57.0317 14.5428C57.0317 14.9428 57.1747 15.2731 57.462 15.5339C57.7493 15.7946 58.1607 15.9249 58.6998 15.9249C59.134 15.9249 59.5213 15.83 59.8592 15.6376C60.1984 15.4465 60.4718 15.182 60.6806 14.8428C60.8894 14.5036 60.9932 14.1087 60.9932 13.6569V10.6332C60.9932 10.008 60.8325 9.56377 60.511 9.30431C60.1895 9.04359 59.6377 8.91322 58.8555 8.91322C58.4379 8.91322 57.9696 8.96132 57.4481 9.05624C56.9267 9.15243 56.3445 9.32203 55.7015 9.56503C55.232 9.73969 54.832 9.76501 54.5029 9.6435C54.1726 9.522 53.9157 9.31317 53.7334 9.01827C53.5512 8.72211 53.4638 8.4019 53.4727 8.05384C53.4816 7.70579 53.5942 7.37545 53.8119 7.06284C54.0296 6.75022 54.3637 6.50722 54.8156 6.33256C55.6496 6.01994 56.4179 5.81111 57.1216 5.70606C57.8253 5.60228 58.472 5.54912 59.0631 5.54912C60.4882 5.54912 61.6653 5.75415 62.5955 6.16169C63.5245 6.5705 64.2206 7.19573 64.6813 8.03866C65.142 8.88158 65.3724 9.96371 65.3724 11.2838V16.5489C65.3724 17.3134 65.1888 17.8956 64.8243 18.2955C64.4598 18.6955 63.9295 18.8954 63.2334 18.8954C62.5373 18.8954 61.9779 18.6955 61.6045 18.2955C61.2311 17.8956 61.0438 17.3134 61.0438 16.5489V15.8705L61.2008 16.2363C61.1134 16.7932 60.9135 17.2703 60.6009 17.6703C60.2882 18.0702 59.8794 18.3828 59.3757 18.6094C58.872 18.8347 58.2986 18.9486 57.6557 18.9486" fill="white"/>
<path d="M73.1423 18.9515C71.4741 18.9515 70.2438 18.5047 69.454 17.6085C68.663 16.7137 68.2681 15.3632 68.2681 13.5545V2.39849C68.2681 1.634 68.468 1.05178 68.868 0.651812C69.268 0.251847 69.8325 0.0518646 70.5628 0.0518646C71.2931 0.0518646 71.888 0.251847 72.2968 0.651812C72.7056 1.05178 72.9094 1.634 72.9094 2.39849V13.4001C72.9094 14.043 73.036 14.5126 73.2879 14.8075C73.5398 15.1037 73.865 15.2505 74.265 15.2505C74.3865 15.2505 74.5131 15.2379 74.6435 15.2113C74.7738 15.1847 74.9168 15.1632 75.0738 15.1467C75.3687 15.1467 75.5902 15.2606 75.7383 15.4859C75.8864 15.7125 75.9598 16.1732 75.9598 16.8681C75.9598 17.4769 75.8383 17.9326 75.5953 18.2363C75.351 18.5414 74.9776 18.7363 74.4738 18.8224C74.3346 18.8388 74.1346 18.8654 73.8739 18.9008C73.6132 18.9363 73.3689 18.9527 73.1436 18.9527" fill="white"/>
<path d="M82.3958 18.9511C81.2833 18.9511 80.3708 18.7461 79.6582 18.3385C78.9456 17.9297 78.4115 17.3172 78.0546 16.5008C77.6977 15.6845 77.5205 14.6492 77.5205 13.3987V7.92475C77.5205 7.1603 77.7205 6.5819 78.1204 6.19081C78.5204 5.79972 79.0937 5.60481 79.8417 5.60481C80.5897 5.60481 81.1618 5.79972 81.5617 6.19081C81.9617 6.5819 82.1617 7.15903 82.1617 7.92475V13.5291C82.1617 14.1543 82.292 14.6239 82.5527 14.9365C82.8135 15.2491 83.221 15.406 83.7779 15.406C84.4031 15.406 84.9157 15.1807 85.3157 14.7276C85.7156 14.2758 85.9156 13.6759 85.9156 12.9291V7.92349C85.9156 7.15903 86.1156 6.58063 86.5155 6.18954C86.9154 5.79846 87.4888 5.60355 88.2355 5.60355C88.9823 5.60355 89.5556 5.79846 89.9555 6.18954C90.3555 6.58063 90.5555 7.15777 90.5555 7.92349V16.5514C90.5555 18.1158 89.8075 18.898 88.314 18.898C87.5837 18.898 87.0192 18.698 86.6193 18.298C86.2193 17.8981 86.0194 17.3159 86.0194 16.5514V15.039L86.437 16.316C86.0548 17.1678 85.5207 17.8196 84.8334 18.2715C84.1462 18.7233 83.3349 18.9486 82.3958 18.9486" fill="white"/>
<path d="M98.5328 18.9515C97.438 18.9515 96.4684 18.6819 95.6255 18.1427C94.7825 17.6035 94.1218 16.8301 93.6446 15.8226C93.1662 14.8151 92.9282 13.6241 92.9282 12.2508C92.9282 10.8775 93.1674 9.64342 93.6446 8.65364C94.1231 7.66259 94.7825 6.8981 95.6255 6.36017C96.4684 5.82098 97.4367 5.55138 98.5328 5.55138C99.4884 5.55138 100.349 5.77794 101.114 6.2298C101.878 6.68166 102.391 7.26389 102.651 7.97648H102.364V2.39849C102.364 1.634 102.563 1.05178 102.964 0.651812C103.364 0.251847 103.937 0.0518646 104.684 0.0518646C105.431 0.0518646 105.983 0.251847 106.392 0.651812C106.799 1.05178 107.004 1.634 107.004 2.39849V16.5542C107.004 17.3187 106.809 17.9009 106.418 18.3009C106.027 18.7009 105.458 18.9008 104.711 18.9008C103.964 18.9008 103.416 18.7009 103.016 18.3009C102.616 17.9009 102.416 17.3187 102.416 16.5542V15.0683L102.703 16.3454C102.459 17.1276 101.951 17.7579 101.178 18.2351C100.405 18.7135 99.5226 18.9515 98.5315 18.9515M100.017 15.5366C100.487 15.5366 100.903 15.4189 101.269 15.1847C101.634 14.9493 101.916 14.5936 102.116 14.1152C102.315 13.6367 102.416 13.0165 102.416 12.2521C102.416 11.0876 102.189 10.2497 101.738 9.73582C101.286 9.22321 100.712 8.96754 100.017 8.96754C99.5479 8.96754 99.1315 9.08145 98.7657 9.30675C98.4012 9.53331 98.1138 9.88518 97.905 10.3623C97.6962 10.8408 97.5924 11.4698 97.5924 12.2521C97.5924 13.3988 97.8189 14.2329 98.2708 14.7544C98.7227 15.2758 99.3049 15.5366 100.017 15.5366Z" fill="white"/>
<path d="M28.7144 11.3661V13.0518H30.6848C31.8111 13.0518 32.7324 12.1305 32.7324 11.0042C32.7324 10.4069 32.4717 9.87027 32.0604 9.49441C31.7251 9.22105 31.3011 9.07425 30.8316 9.07425C29.7002 9.07425 28.7144 9.91583 28.7144 11.3661Z" fill="white"/>
<path d="M9.25293 6.7603C9.25293 5.09209 10.6098 3.90486 12.3628 3.90486C14.1158 3.90486 15.1334 4.86553 15.5574 6.53374C16.6599 5.1769 18.3559 3.82005 20.476 3.82005C23.6985 3.82005 25.7059 5.85532 25.7059 9.16262V16.0595C25.7059 17.6707 24.3212 18.9997 22.5961 18.9997C20.8709 18.9997 19.4862 17.6707 19.4862 16.0595V11.1979C19.4862 9.78408 18.6382 8.96517 17.5357 8.96517C16.4333 8.96517 15.4726 9.78535 15.4726 11.1979V16.0595C15.4726 17.6707 14.0879 18.9997 12.3628 18.9997C10.6376 18.9997 9.25293 17.6707 9.25293 16.0595V6.7603Z" fill="white"/>
<path d="M3.23211 6.07788C1.45133 6.07788 0.0375977 7.52072 0.0375977 9.32555V15.6019C0.0375977 17.4789 1.46779 19.0002 3.23211 19.0002C4.99642 19.0002 6.42661 17.4789 6.42661 15.6019V9.32555C6.42661 7.52072 5.01288 6.07788 3.23211 6.07788Z" fill="white"/>
<path d="M3.21447 0.00498962C1.42247 0.00498962 0 1.36038 0 3.05621V8.9549C0 10.7191 1.43892 12.1491 3.21447 12.1491C4.99003 12.1491 6.42895 10.7191 6.42895 8.9549V3.05621C6.42895 1.36038 5.00648 0.00498962 3.21447 0.00498962Z" fill="white"/>
<path d="M0.00488281 9.14055C0.0997984 10.8199 1.50075 12.1525 3.2143 12.1525C4.92784 12.1525 6.32879 10.8199 6.42371 9.14055C6.32879 7.42448 4.94429 6.08047 3.2143 6.08047C1.4843 6.08047 0.0997984 7.42448 0.00488281 9.14055Z" fill="white"/>
</svg>
